<svg xmlns="http://www.w3.org/2000/svg" width="680" height="535" viewBox="0 0 680 535" font-family="'Apple SD Gothic Neo','Helvetica Neue',sans-serif" role="img">
<title>스마트 신호등 v3 상태전이도</title>
<defs>
<marker id="arrow" viewBox="0 0 10 10" refX="8" refY="5" markerWidth="6" markerHeight="6" orient="auto-start-reverse"><path d="M2 1L8 5L2 9" fill="none" stroke="#73726C" stroke-width="1.5" stroke-linecap="round" stroke-linejoin="round"/></marker>
</defs>

<rect x="0" y="0" width="680" height="535" fill="#ffffff"/>

<rect x="180" y="50" width="320" height="60" rx="8" fill="#EAF3DE" stroke="#3B6D11" stroke-width="1"/>
<text x="340" y="79" text-anchor="middle" font-size="15" font-weight="500" fill="#27500A">VEHICLE_PASS</text>
<text x="340" y="98" text-anchor="middle" font-size="12" fill="#3B6D11">차량 녹 · 보행 적</text>

<rect x="180" y="170" width="320" height="60" rx="8" fill="#FAEEDA" stroke="#854F0B" stroke-width="1"/>
<text x="340" y="199" text-anchor="middle" font-size="15" font-weight="500" fill="#633806">VEHICLE_WARNING</text>
<text x="340" y="218" text-anchor="middle" font-size="12" fill="#854F0B">차량 황 · 보행 적</text>

<rect x="180" y="290" width="320" height="60" rx="8" fill="#E1F5EE" stroke="#0F6E56" stroke-width="1"/>
<text x="340" y="319" text-anchor="middle" font-size="15" font-weight="500" fill="#085041">PEDESTRIAN_PASS</text>
<text x="340" y="338" text-anchor="middle" font-size="12" fill="#0F6E56">차량 적 · 보행 녹</text>

<rect x="180" y="410" width="320" height="60" rx="8" fill="#FAEEDA" stroke="#854F0B" stroke-width="1"/>
<text x="340" y="439" text-anchor="middle" font-size="15" font-weight="500" fill="#633806">PEDESTRIAN_WARNING</text>
<text x="340" y="458" text-anchor="middle" font-size="12" fill="#854F0B">차량 적 · 보행 녹 점멸</text>

<line x1="340" y1="110" x2="340" y2="168" stroke="#73726C" stroke-width="1.5" marker-end="url(#arrow)"/>
<text x="352" y="144" font-size="12" fill="#5F5E5A">10초 경과 + 보행자 요청</text>

<line x1="340" y1="230" x2="340" y2="288" stroke="#73726C" stroke-width="1.5" marker-end="url(#arrow)"/>
<text x="352" y="264" font-size="12" fill="#5F5E5A">3초 후</text>

<line x1="340" y1="350" x2="340" y2="408" stroke="#73726C" stroke-width="1.5" marker-end="url(#arrow)"/>
<text x="352" y="384" font-size="12" fill="#5F5E5A">7초 후</text>

<path d="M180 440 L100 440 L100 80 L178 80" fill="none" stroke="#73726C" stroke-width="1.5" marker-end="url(#arrow)"/>
<text x="52" y="262" text-anchor="middle" font-size="12" fill="#5F5E5A">3초 후</text>

<path d="M500 66 L558 66 L558 94 L502 94" fill="none" stroke="#73726C" stroke-width="1.5" marker-end="url(#arrow)"/>
<text x="512" y="118" font-size="12" fill="#5F5E5A">요청 대기</text>

<rect x="40" y="499" width="14" height="14" rx="3" fill="#EAF3DE" stroke="#3B6D11" stroke-width="1"/>
<text x="60" y="510" font-size="12" fill="#5F5E5A">차량 통행</text>
<rect x="190" y="499" width="14" height="14" rx="3" fill="#E1F5EE" stroke="#0F6E56" stroke-width="1"/>
<text x="210" y="510" font-size="12" fill="#5F5E5A">보행자 통행</text>
<rect x="370" y="499" width="14" height="14" rx="3" fill="#FAEEDA" stroke="#854F0B" stroke-width="1"/>
<text x="390" y="510" font-size="12" fill="#5F5E5A">황색 / 경고</text>
</svg>
